<mxfile host="app.diagrams.net" modified="2023-05-10T09:03:37.954Z" agent="Mozilla/5.0 (Windows NT 10.0; Win64; x64) AppleWebKit/537.36 (KHTML, like Gecko) Chrome/113.0.0.0 Safari/537.36" etag="_E1thRcHnPTnJB_yAJw4" version="21.2.9" type="device">
  <diagram name="Page-1" id="2YBvvXClWsGukQMizWep">
    <mxGraphModel dx="1050" dy="581" grid="1" gridSize="10" guides="1" tooltips="1" connect="1" arrows="1" fold="1" page="1" pageScale="1" pageWidth="850" pageHeight="1100" math="0" shadow="0">
      <root>
        <mxCell id="0" />
        <mxCell id="1" parent="0" />
        <mxCell id="YSP_uSWVFn_qr2q9FEzM-15" value="" style="group" parent="1" vertex="1" connectable="0">
          <mxGeometry x="60" y="150" width="990" height="250" as="geometry" />
        </mxCell>
        <mxCell id="YSP_uSWVFn_qr2q9FEzM-1" value="일반 회원" style="shape=umlActor;verticalLabelPosition=bottom;verticalAlign=top;html=1;outlineConnect=0;" parent="YSP_uSWVFn_qr2q9FEzM-15" vertex="1">
          <mxGeometry y="10" width="50" height="100" as="geometry" />
        </mxCell>
        <mxCell id="YSP_uSWVFn_qr2q9FEzM-2" value=":Recruitinquiry" style="rounded=0;whiteSpace=wrap;html=1;" parent="YSP_uSWVFn_qr2q9FEzM-15" vertex="1">
          <mxGeometry x="440" y="30" width="110" height="60" as="geometry" />
        </mxCell>
        <mxCell id="YSP_uSWVFn_qr2q9FEzM-3" value=":RecruitinquiryUI" style="rounded=0;whiteSpace=wrap;html=1;" parent="YSP_uSWVFn_qr2q9FEzM-15" vertex="1">
          <mxGeometry x="190" y="30" width="110" height="60" as="geometry" />
        </mxCell>
        <mxCell id="YSP_uSWVFn_qr2q9FEzM-4" value=":Company" style="rounded=0;whiteSpace=wrap;html=1;" parent="YSP_uSWVFn_qr2q9FEzM-15" vertex="1">
          <mxGeometry x="280" y="190" width="100" height="60" as="geometry" />
        </mxCell>
        <mxCell id="YSP_uSWVFn_qr2q9FEzM-5" value=":Recruitinfo" style="rounded=0;whiteSpace=wrap;html=1;" parent="YSP_uSWVFn_qr2q9FEzM-15" vertex="1">
          <mxGeometry x="520" y="190" width="110" height="60" as="geometry" />
        </mxCell>
        <mxCell id="YSP_uSWVFn_qr2q9FEzM-6" value="" style="endArrow=none;html=1;rounded=0;entryX=0.25;entryY=1;entryDx=0;entryDy=0;exitX=0.75;exitY=0;exitDx=0;exitDy=0;" parent="YSP_uSWVFn_qr2q9FEzM-15" source="YSP_uSWVFn_qr2q9FEzM-4" target="YSP_uSWVFn_qr2q9FEzM-2" edge="1">
          <mxGeometry width="50" height="50" relative="1" as="geometry">
            <mxPoint x="330" y="160" as="sourcePoint" />
            <mxPoint x="380" y="110" as="targetPoint" />
          </mxGeometry>
        </mxCell>
        <mxCell id="YSP_uSWVFn_qr2q9FEzM-7" value="" style="endArrow=none;html=1;rounded=0;entryX=0;entryY=0.5;entryDx=0;entryDy=0;exitX=1;exitY=0.5;exitDx=0;exitDy=0;" parent="YSP_uSWVFn_qr2q9FEzM-15" source="YSP_uSWVFn_qr2q9FEzM-3" target="YSP_uSWVFn_qr2q9FEzM-2" edge="1">
          <mxGeometry width="50" height="50" relative="1" as="geometry">
            <mxPoint x="330" y="160" as="sourcePoint" />
            <mxPoint x="380" y="110" as="targetPoint" />
          </mxGeometry>
        </mxCell>
        <mxCell id="YSP_uSWVFn_qr2q9FEzM-8" value="" style="endArrow=classic;html=1;rounded=0;" parent="YSP_uSWVFn_qr2q9FEzM-15" edge="1">
          <mxGeometry width="50" height="50" relative="1" as="geometry">
            <mxPoint x="430" y="100" as="sourcePoint" />
            <mxPoint x="350" y="170" as="targetPoint" />
          </mxGeometry>
        </mxCell>
        <mxCell id="YSP_uSWVFn_qr2q9FEzM-9" value="1 *[For all Companies]: getCompanyInfo()&lt;br&gt;3.1.1 listRecruitinfo()&lt;br&gt;3.1.3 *[For all Recruitinfos]: getCompanyInfo()&lt;br&gt;3.1.4 *[For all Recruitinfos]: sortbyCompanyName()" style="text;html=1;align=left;verticalAlign=middle;resizable=0;points=[];autosize=1;strokeColor=none;fillColor=none;" parent="YSP_uSWVFn_qr2q9FEzM-15" vertex="1">
          <mxGeometry x="95" y="95" width="300" height="70" as="geometry" />
        </mxCell>
        <mxCell id="YSP_uSWVFn_qr2q9FEzM-12" value="" style="endArrow=none;html=1;rounded=0;entryX=0;entryY=0.5;entryDx=0;entryDy=0;" parent="YSP_uSWVFn_qr2q9FEzM-15" source="YSP_uSWVFn_qr2q9FEzM-1" target="YSP_uSWVFn_qr2q9FEzM-3" edge="1">
          <mxGeometry width="50" height="50" relative="1" as="geometry">
            <mxPoint x="330" y="160" as="sourcePoint" />
            <mxPoint x="380" y="110" as="targetPoint" />
          </mxGeometry>
        </mxCell>
        <mxCell id="YSP_uSWVFn_qr2q9FEzM-13" value="" style="endArrow=classic;html=1;rounded=0;" parent="YSP_uSWVFn_qr2q9FEzM-15" edge="1">
          <mxGeometry width="50" height="50" relative="1" as="geometry">
            <mxPoint x="60" y="50" as="sourcePoint" />
            <mxPoint x="180" y="50" as="targetPoint" />
          </mxGeometry>
        </mxCell>
        <mxCell id="YSP_uSWVFn_qr2q9FEzM-14" value="3: searchCompany()" style="text;html=1;align=center;verticalAlign=middle;resizable=0;points=[];autosize=1;strokeColor=none;fillColor=none;" parent="YSP_uSWVFn_qr2q9FEzM-15" vertex="1">
          <mxGeometry x="50" y="20" width="130" height="30" as="geometry" />
        </mxCell>
        <mxCell id="YSP_uSWVFn_qr2q9FEzM-10" value="" style="endArrow=classic;html=1;rounded=0;" parent="YSP_uSWVFn_qr2q9FEzM-15" edge="1">
          <mxGeometry width="50" height="50" relative="1" as="geometry">
            <mxPoint x="410" y="70" as="sourcePoint" />
            <mxPoint x="320" y="70" as="targetPoint" />
          </mxGeometry>
        </mxCell>
        <mxCell id="YSP_uSWVFn_qr2q9FEzM-11" value="2: startInterface()" style="text;html=1;align=center;verticalAlign=middle;resizable=0;points=[];autosize=1;strokeColor=none;fillColor=none;" parent="YSP_uSWVFn_qr2q9FEzM-15" vertex="1">
          <mxGeometry x="310" y="70" width="110" height="30" as="geometry" />
        </mxCell>
        <mxCell id="YSP_uSWVFn_qr2q9FEzM-18" value="" style="endArrow=none;html=1;rounded=0;exitX=0.5;exitY=0;exitDx=0;exitDy=0;exitPerimeter=0;entryX=0.645;entryY=1.017;entryDx=0;entryDy=0;entryPerimeter=0;" parent="YSP_uSWVFn_qr2q9FEzM-15" source="YSP_uSWVFn_qr2q9FEzM-5" target="YSP_uSWVFn_qr2q9FEzM-2" edge="1">
          <mxGeometry width="50" height="50" relative="1" as="geometry">
            <mxPoint x="340" y="160" as="sourcePoint" />
            <mxPoint x="390" y="110" as="targetPoint" />
          </mxGeometry>
        </mxCell>
        <mxCell id="YSP_uSWVFn_qr2q9FEzM-20" value="3.1.2 *[For all Companies Recruitinfos date &amp;lt; deadline]: getRecruitInfolist()" style="text;html=1;align=left;verticalAlign=middle;resizable=0;points=[];autosize=1;strokeColor=none;fillColor=none;" parent="YSP_uSWVFn_qr2q9FEzM-15" vertex="1">
          <mxGeometry x="560" y="110" width="420" height="30" as="geometry" />
        </mxCell>
        <mxCell id="YSP_uSWVFn_qr2q9FEzM-16" value="" style="endArrow=classic;html=1;rounded=0;" parent="1" edge="1">
          <mxGeometry width="50" height="50" relative="1" as="geometry">
            <mxPoint x="370" y="200" as="sourcePoint" />
            <mxPoint x="480" y="200" as="targetPoint" />
          </mxGeometry>
        </mxCell>
        <mxCell id="YSP_uSWVFn_qr2q9FEzM-17" value="3.1: showRecruitInfo()" style="text;html=1;align=center;verticalAlign=middle;resizable=0;points=[];autosize=1;strokeColor=none;fillColor=none;" parent="1" vertex="1">
          <mxGeometry x="360" y="168" width="140" height="30" as="geometry" />
        </mxCell>
        <mxCell id="YSP_uSWVFn_qr2q9FEzM-19" value="" style="endArrow=classic;html=1;rounded=0;" parent="1" edge="1">
          <mxGeometry width="50" height="50" relative="1" as="geometry">
            <mxPoint x="590" y="250" as="sourcePoint" />
            <mxPoint x="640" y="330" as="targetPoint" />
          </mxGeometry>
        </mxCell>
        <mxCell id="YSP_uSWVFn_qr2q9FEzM-21" value="&lt;b&gt;sd&lt;/b&gt;&amp;nbsp;채용 정보 조회" style="shape=umlFrame;whiteSpace=wrap;html=1;pointerEvents=0;width=110;height=30;" parent="1" vertex="1">
          <mxGeometry x="20" y="20" width="1010" height="450" as="geometry" />
        </mxCell>
        <mxCell id="LTDyTWsyqPyUV4bUGbs5-6" value="&lt;p style=&quot;margin:0px;margin-top:4px;text-align:center;&quot;&gt;&lt;i&gt;&amp;lt;&amp;lt;boundary&amp;gt;&amp;gt;&lt;/i&gt;&lt;br&gt;&lt;b&gt;User Interface::RecruitinquiryUI&lt;/b&gt;&lt;/p&gt;&lt;hr size=&quot;1&quot;&gt;&lt;p style=&quot;margin:0px;margin-left:4px;&quot;&gt;&lt;br&gt;&lt;/p&gt;&lt;hr size=&quot;1&quot;&gt;&lt;p style=&quot;margin:0px;margin-left:4px;&quot;&gt;startInterface()&lt;/p&gt;&lt;p style=&quot;margin:0px;margin-left:4px;&quot;&gt;searchCompany()&lt;/p&gt;" style="verticalAlign=top;align=left;overflow=fill;fontSize=12;fontFamily=Helvetica;html=1;whiteSpace=wrap;" parent="1" vertex="1">
          <mxGeometry x="130" y="570" width="190" height="140" as="geometry" />
        </mxCell>
        <mxCell id="LTDyTWsyqPyUV4bUGbs5-7" value="&lt;p style=&quot;margin:0px;margin-top:4px;text-align:center;&quot;&gt;&lt;i&gt;&amp;lt;&amp;lt;control&amp;gt;&amp;gt;&lt;/i&gt;&lt;br&gt;&lt;b&gt;Control::Recruitinquiry&lt;/b&gt;&lt;/p&gt;&lt;hr size=&quot;1&quot;&gt;&lt;p style=&quot;margin:0px;margin-left:4px;&quot;&gt;&lt;br&gt;&lt;/p&gt;&lt;hr size=&quot;1&quot;&gt;&lt;p style=&quot;margin:0px;margin-left:4px;&quot;&gt;showRecruitInfo()&lt;/p&gt;" style="verticalAlign=top;align=left;overflow=fill;fontSize=12;fontFamily=Helvetica;html=1;whiteSpace=wrap;" parent="1" vertex="1">
          <mxGeometry x="350" y="570" width="190" height="140" as="geometry" />
        </mxCell>
        <mxCell id="LTDyTWsyqPyUV4bUGbs5-8" value="&lt;p style=&quot;margin:0px;margin-top:4px;text-align:center;&quot;&gt;&lt;i&gt;&amp;lt;&amp;lt;Entity&amp;gt;&amp;gt;&lt;/i&gt;&lt;br&gt;&lt;b&gt;Company&lt;/b&gt;&lt;/p&gt;&lt;hr size=&quot;1&quot;&gt;&lt;p style=&quot;margin:0px;margin-left:4px;&quot;&gt;companyName&lt;/p&gt;&lt;p style=&quot;margin:0px;margin-left:4px;&quot;&gt;companyWork&lt;/p&gt;&lt;hr size=&quot;1&quot;&gt;&lt;p style=&quot;margin:0px;margin-left:4px;&quot;&gt;getCompanyInfo()&lt;/p&gt;&lt;p style=&quot;margin:0px;margin-left:4px;&quot;&gt;listRecruitInfo()&lt;/p&gt;&lt;p style=&quot;margin:0px;margin-left:4px;&quot;&gt;sortbyCompanyName()&lt;/p&gt;" style="verticalAlign=top;align=left;overflow=fill;fontSize=12;fontFamily=Helvetica;html=1;whiteSpace=wrap;" parent="1" vertex="1">
          <mxGeometry x="235" y="780" width="190" height="140" as="geometry" />
        </mxCell>
        <mxCell id="LTDyTWsyqPyUV4bUGbs5-9" value="&lt;p style=&quot;margin:0px;margin-top:4px;text-align:center;&quot;&gt;&lt;i&gt;&amp;lt;&amp;lt;Entity&amp;gt;&amp;gt;&lt;/i&gt;&lt;br&gt;&lt;b&gt;Recruitinfo&lt;/b&gt;&lt;/p&gt;&lt;hr size=&quot;1&quot;&gt;&lt;p style=&quot;margin:0px;margin-left:4px;&quot;&gt;Deadline&lt;/p&gt;&lt;p style=&quot;margin:0px;margin-left:4px;&quot;&gt;Position&lt;br&gt;&lt;/p&gt;&lt;p style=&quot;margin:0px;margin-left:4px;&quot;&gt;NumberOfPeople&lt;/p&gt;&lt;hr size=&quot;1&quot;&gt;&lt;p style=&quot;margin:0px;margin-left:4px;&quot;&gt;getRecruitInfoInfolist()&lt;/p&gt;" style="verticalAlign=top;align=left;overflow=fill;fontSize=12;fontFamily=Helvetica;html=1;whiteSpace=wrap;" parent="1" vertex="1">
          <mxGeometry x="540" y="780" width="190" height="120" as="geometry" />
        </mxCell>
        <mxCell id="LTDyTWsyqPyUV4bUGbs5-11" value="채용정보 제공" style="text;html=1;align=center;verticalAlign=middle;resizable=0;points=[];autosize=1;strokeColor=none;fillColor=none;" parent="1" vertex="1">
          <mxGeometry x="420" y="852" width="100" height="30" as="geometry" />
        </mxCell>
        <mxCell id="LTDyTWsyqPyUV4bUGbs5-12" value="" style="shape=mxgraph.arrows2.wedgeArrow;html=1;bendable=0;startWidth=10;fillColor=strokeColor;defaultFillColor=invert;defaultGradientColor=invert;rounded=0;" parent="1" edge="1">
          <mxGeometry width="100" height="100" relative="1" as="geometry">
            <mxPoint x="511" y="866" as="sourcePoint" />
            <mxPoint x="531" y="866" as="targetPoint" />
          </mxGeometry>
        </mxCell>
        <mxCell id="LTDyTWsyqPyUV4bUGbs5-14" value="0..*" style="text;html=1;align=center;verticalAlign=middle;resizable=0;points=[];autosize=1;strokeColor=none;fillColor=none;" parent="1" vertex="1">
          <mxGeometry x="509" y="822" width="40" height="30" as="geometry" />
        </mxCell>
        <mxCell id="oEVXjq7YE16arF6Jh7_Z-1" value="1" style="endArrow=open;html=1;endSize=12;startArrow=diamondThin;startSize=14;startFill=1;edgeStyle=orthogonalEdgeStyle;align=left;verticalAlign=bottom;rounded=0;fontSize=12;curved=1;" parent="1" edge="1">
          <mxGeometry x="-1" y="3" relative="1" as="geometry">
            <mxPoint x="426" y="850" as="sourcePoint" />
            <mxPoint x="540" y="850" as="targetPoint" />
          </mxGeometry>
        </mxCell>
      </root>
    </mxGraphModel>
  </diagram>
</mxfile>
